<?xml version="1.0" encoding="iso-8859-1"?>
<!-- Generator: Adobe Illustrator 19.0.0, SVG Export Plug-In . SVG Version: 6.00 Build 0)  -->
<svg version="1.1" id="Layer_1" xmlns="http://www.w3.org/2000/svg" xmlns:xlink="http://www.w3.org/1999/xlink" x="0px" y="0px"
	 viewBox="0 0 512 512" style="enable-background:new 0 0 512 512;" xml:space="preserve">
<polygon style="fill:#F8F8F9;" points="345.6,0 51.2,0 51.2,512 460.8,512 460.8,115.2 "/>
<polygon style="fill:#EDEDED;" points="345.6,115.2 345.6,0 256,0 256,512 460.8,512 460.8,115.2 "/>
<rect x="51.2" y="230.4" style="fill:#B4D8F1;" width="409.6" height="204.8"/>
<rect x="256" y="230.4" style="fill:#98C8ED;" width="204.8" height="204.8"/>
<g>
	<path style="fill:#F8F8F9;" d="M142.932,329.613c0-24.572,19.764-40.666,41.011-40.666c17.714,0,28.114,9.453,32.603,17.855
		L202.03,316.94c-5.065-11.419-16.859-11.174-18.546-11.174c-11.907,0-21.312,9.86-21.312,24.538c0,11.67,7.38,24.769,21.542,24.769
		c8.611,0,15.543-4.591,18.316-11.29l15.438,9.1c-4.37,10.317-17.411,19.008-34.214,19.008
		C160.937,371.891,142.932,352.001,142.932,329.613z"/>
	<path style="fill:#F8F8F9;" d="M281.747,313.37c-6.81-5.13-16.09-7.834-21.773-7.834c-6.758,0-10.138,2.267-10.138,6.797
		c0,5.988,8.241,7.588,17.165,10.022c18.054,4.925,25.459,10.925,25.459,24.768c0,13.731-9.524,25-30.644,25
		c-13.44,0-24.881-3.562-34.906-10.139l8.294-16.474c7.171,4.89,16.211,9.563,26.958,9.563c6.682,0,10.022-2.035,10.022-6.106
		c0-4.486-5.249-6.966-11.923-8.755c-22.38-5.998-29.893-11.492-29.893-24.883c0-13.568,9.048-26.61,30.182-26.61
		c11.427,0,20.387,3.922,29.491,8.986L281.747,313.37z"/>
	<path style="fill:#F8F8F9;" d="M358.354,313.37c-6.81-5.13-16.09-7.834-21.773-7.834c-6.758,0-10.138,2.267-10.138,6.797
		c0,5.988,8.241,7.588,17.165,10.022c18.054,4.925,25.459,10.925,25.459,24.768c0,13.731-9.523,25-30.643,25
		c-13.44,0-24.881-3.562-34.906-10.139l8.293-16.474c7.172,4.89,16.211,9.563,26.958,9.563c6.682,0,10.022-2.035,10.022-6.106
		c0-4.486-5.248-6.966-11.923-8.755c-22.38-5.998-29.894-11.492-29.894-24.883c0-13.568,9.048-26.61,30.182-26.61
		c11.427,0,20.387,3.922,29.491,8.986L358.354,313.37z"/>
</g>
<g>
</g>
<g>
</g>
<g>
</g>
<g>
</g>
<g>
</g>
<g>
</g>
<g>
</g>
<g>
</g>
<g>
</g>
<g>
</g>
<g>
</g>
<g>
</g>
<g>
</g>
<g>
</g>
<g>
</g>
</svg>
